<svg width="243" height="75" viewBox="0 0 243 75" fill="none" xmlns="http://www.w3.org/2000/svg">
<path d="M202.333 5.83699L191.398 7.1341C191.056 4.53988 190.401 2.28902 189.433 0.381502L190.202 0.152601L198.574 2.13642C200.34 3.33179 201.593 4.56532 202.333 5.83699ZM222.154 3.77688V4.53988H206.776V3.77688H222.154ZM233.859 10.0335C234.2 14.052 234.713 17.1931 235.396 19.4566C235.966 21.3642 236.82 23.0809 237.959 24.6069L241.548 22.0509L242.231 22.1272C241.377 26.7561 239.298 30.3803 235.994 33H234.457C230.697 31.2197 227.992 28.3838 226.34 24.4925L222.496 27.163C220.502 27.9769 217.939 28.7653 214.807 29.5283C214.009 29.7318 211.304 30.3168 206.69 31.2832L204.555 27.6971L197.549 29.6046C197.207 29.0197 196.296 27.5191 194.815 25.1029C192.024 27.4173 188.009 29.9734 182.769 32.7711L182 32.4277C186.101 27.5954 188.949 23.0173 190.543 18.6936C188.607 15.7434 186.5 12.7549 184.221 9.72832L184.905 9.57572L192.167 13.4289C192.451 12.259 192.765 10.504 193.106 8.16416H183.452V7.40116H207.545V8.16416H204.127C203.273 12.5642 201.963 16.1757 200.197 18.9988C202.59 21.0335 204.412 22.6104 205.665 23.7295V13.2382H212.842V24.6451C213.297 24.5942 213.668 24.5688 213.952 24.5688V11.0636H223.008V16.8624H224.29C224.062 15.3618 223.834 13.0855 223.606 10.0335H205.409V9.27052H223.521C223.464 8.02428 223.379 6.72717 223.265 5.37919C223.208 4.20925 223.179 2.41618 223.179 0H233.431V1.75491L237.959 3.47167C240.181 4.64162 241.861 5.84971 243 7.09595L235.824 8.77457C235.425 7.60463 234.656 5.87514 233.517 3.58613C233.574 4.19653 233.602 4.79422 233.602 5.37919C233.659 6.6763 233.716 7.97341 233.773 9.27052H242.146V10.0335H233.859ZM225.913 23.4624C225.23 21.6821 224.717 19.7364 224.375 17.6254H223.008V23.7676C223.977 23.6659 224.945 23.5642 225.913 23.4624Z" fill="black"/>
<path d="M215.895 58.735L224.565 58.14C229.892 58.7633 235.388 60.265 241.055 62.645L234.68 74.46C227.767 69.2467 221.137 64.685 214.79 60.775C212.41 64.7983 208.755 67.8583 203.825 69.955C198.952 72.1083 192.18 73.5817 183.51 74.375L183 73.355C193.257 68.8217 199.773 63.8067 202.55 58.31H190.905V34H234.51V57.29H222.1V35.7H203.315V56.865C205.128 52.955 206.177 46.9483 206.46 38.845H219.635C219.182 47.7417 217.935 54.3717 215.895 58.735Z" fill="black"/>
<path d="M113.826 23.9698V25.6698H105.156V23.9698H113.826ZM113.826 16.8298V18.5298H105.156V16.8298H113.826ZM137.286 23.9698V25.6698H128.616V23.9698H137.286ZM137.286 16.8298V18.5298H128.616V16.8298H137.286ZM139.496 40.8848C141.649 44.8515 145.729 48.3648 151.736 51.4248L147.401 67.4048C143.491 63.8348 140.799 59.5848 139.326 54.6548V73.6098H127.426V58.3948C126.633 59.4148 125.386 60.8881 123.686 62.8148L115.356 67.1498L114.591 66.5548C117.084 62.7015 119.323 58.2815 121.306 53.2948L115.271 58.7348C114.874 56.4115 114.364 54.0031 113.741 51.5098V73.6098H101.841V57.7998C101.444 58.3098 100.311 59.6415 98.4409 61.7948L91.6409 66.2148L90.9609 65.6198C94.9843 57.5165 97.9876 49.2715 99.9709 40.8848H93.3409V39.2698H101.841V30.7698H113.741V39.2698H119.266V40.8848H113.741V44.4548L118.671 47.1748C120.144 49.0448 121.193 50.6598 121.816 52.0198C123.346 48.1665 124.593 44.4548 125.556 40.8848H120.626V39.2698H127.426V30.7698H139.326V39.2698H149.186V40.8848H139.496ZM127.596 11.3898V28.3048H114.846V11.3898H104.136L104.731 15.9798C104.561 20.4565 103.966 24.6215 102.946 28.4748L91.3009 22.8648C95.0976 18.3315 98.8943 12.7498 102.691 6.1198L103.541 6.2048L103.966 9.6898H114.846V4.2498H100.991V2.5498H144.596V4.2498H127.596V9.6898H151.991C150.518 15.1298 148.704 19.8898 146.551 23.9698L137.881 28.8998L137.201 28.4748C137.881 24.7915 138.391 19.0965 138.731 11.3898H127.596Z" fill="black"/>
<path d="M45.05 52.36V73.525H33.745V15.555H19.635C18.2183 19.5783 16.9717 22.8083 15.895 25.245H31.96V57.885C31.96 62.7017 31.535 66.13 30.685 68.17C29.665 70.6633 27.4833 72.8167 24.14 74.63L16.745 66.47V73.355H4.845V42.33L0.765 45.39L0 44.795C3.17333 33.8583 5.61 24.1117 7.31 15.555H0.595V13.855H7.65C8.16 10.8517 8.95333 6.23333 10.03 0L23.63 1.7C22.3267 6.8 21.165 10.8517 20.145 13.855H33.745V4.08H59.075C58.735 10.1433 57.5733 15.2433 55.59 19.38C53.9467 22.8367 51.4817 26.095 48.195 29.155C51.765 31.2517 54.5133 34.0283 56.44 37.485C58.4233 40.885 59.415 44.4833 59.415 48.28C59.415 51.17 58.7633 53.6633 57.46 55.76C56.27 57.6867 54.2867 59.5567 51.51 61.37L45.05 52.36ZM45.05 49.555H46.92C47.8267 48.0817 48.28 45.73 48.28 42.5C48.3933 38.08 47.94 33.6883 46.92 29.325C47.6567 20.2017 47.9117 12.3533 47.685 5.78H45.05V49.555ZM19.975 51.595H16.745V63.665H18.785C19.5783 62.305 19.975 59.84 19.975 56.27V51.595ZM19.975 49.895V39.27H16.745V49.895H19.975ZM19.975 37.57V26.945H16.745V37.57H19.975Z" fill="black"/>
</svg>
